<?xml version="1.0" encoding="UTF-8" ?>
<svg version="1.1" width="100" height="100" xmlns="http://www.w3.org/2000/svg" shape-rendering="crispEdges">
<rect x="32" y="2" width="31" height="1" fill="#000000" />
<rect x="27" y="3" width="2" height="1" fill="#000000" />
<rect x="31" y="3" width="1" height="1" fill="#000000" />
<rect x="32" y="3" width="31" height="15" fill="#8F563B" />
<rect x="63" y="3" width="1" height="1" fill="#000000" />
<rect x="66" y="3" width="2" height="1" fill="#000000" />
<rect x="26" y="4" width="1" height="40" fill="#000000" />
<rect x="27" y="4" width="1" height="39" fill="#663931" />
<rect x="28" y="4" width="1" height="39" fill="#4F2922" />
<rect x="29" y="4" width="2" height="1" fill="#000000" />
<rect x="31" y="4" width="1" height="15" fill="#8F563B" />
<rect x="63" y="4" width="1" height="15" fill="#8F563B" />
<rect x="64" y="4" width="2" height="1" fill="#000000" />
<rect x="66" y="4" width="1" height="39" fill="#663931" />
<rect x="67" y="4" width="1" height="74" fill="#4F2922" />
<rect x="68" y="4" width="1" height="74" fill="#000000" />
<rect x="29" y="5" width="1" height="39" fill="#000000" />
<rect x="30" y="5" width="1" height="15" fill="#8F563B" />
<rect x="64" y="5" width="1" height="15" fill="#774730" />
<rect x="65" y="5" width="1" height="39" fill="#000000" />
<rect x="32" y="18" width="31" height="1" fill="#000000" />
<rect x="31" y="19" width="1" height="1" fill="#000000" />
<rect x="63" y="19" width="1" height="1" fill="#000000" />
<rect x="30" y="20" width="1" height="1" fill="#000000" />
<rect x="64" y="20" width="1" height="1" fill="#000000" />
<rect x="27" y="43" width="2" height="1" fill="#000000" />
<rect x="30" y="43" width="35" height="1" fill="#000000" />
<rect x="66" y="43" width="1" height="14" fill="#000000" />
<rect x="25" y="44" width="1" height="2" fill="#000000" />
<rect x="26" y="44" width="39" height="4" fill="#8F563B" />
<rect x="65" y="44" width="1" height="4" fill="#774730" />
<rect x="24" y="46" width="1" height="2" fill="#000000" />
<rect x="25" y="46" width="1" height="15" fill="#8F563B" />
<rect x="23" y="48" width="1" height="2" fill="#000000" />
<rect x="24" y="48" width="1" height="13" fill="#8F563B" />
<rect x="26" y="48" width="38" height="2" fill="#8F563B" />
<rect x="64" y="48" width="1" height="2" fill="#774730" />
<rect x="65" y="48" width="1" height="2" fill="#000000" />
<rect x="22" y="50" width="1" height="2" fill="#000000" />
<rect x="23" y="50" width="1" height="11" fill="#8F563B" />
<rect x="26" y="50" width="37" height="2" fill="#8F563B" />
<rect x="63" y="50" width="1" height="2" fill="#774730" />
<rect x="64" y="50" width="1" height="2" fill="#000000" />
<rect x="65" y="50" width="1" height="7" fill="#3E1C16" />
<rect x="21" y="52" width="1" height="1" fill="#000000" />
<rect x="22" y="52" width="1" height="9" fill="#8F563B" />
<rect x="26" y="52" width="36" height="1" fill="#8F563B" />
<rect x="62" y="52" width="1" height="1" fill="#774730" />
<rect x="63" y="52" width="1" height="1" fill="#000000" />
<rect x="64" y="52" width="1" height="5" fill="#4F2922" />
<rect x="20" y="53" width="1" height="2" fill="#000000" />
<rect x="21" y="53" width="1" height="8" fill="#8F563B" />
<rect x="26" y="53" width="35" height="2" fill="#8F563B" />
<rect x="61" y="53" width="1" height="2" fill="#774730" />
<rect x="62" y="53" width="1" height="2" fill="#000000" />
<rect x="63" y="53" width="1" height="5" fill="#4F2922" />
<rect x="19" y="55" width="1" height="2" fill="#000000" />
<rect x="20" y="55" width="1" height="6" fill="#8F563B" />
<rect x="26" y="55" width="34" height="2" fill="#8F563B" />
<rect x="60" y="55" width="1" height="2" fill="#774730" />
<rect x="61" y="55" width="1" height="2" fill="#000000" />
<rect x="62" y="55" width="1" height="5" fill="#4F2922" />
<rect x="18" y="57" width="1" height="2" fill="#000000" />
<rect x="19" y="57" width="1" height="4" fill="#8F563B" />
<rect x="26" y="57" width="33" height="2" fill="#8F563B" />
<rect x="59" y="57" width="1" height="2" fill="#774730" />
<rect x="60" y="57" width="1" height="2" fill="#000000" />
<rect x="61" y="57" width="1" height="4" fill="#4F2922" />
<rect x="64" y="57" width="1" height="1" fill="#3E1C16" />
<rect x="65" y="57" width="1" height="21" fill="#000000" />
<rect x="66" y="57" width="1" height="21" fill="#663931" />
<rect x="63" y="58" width="1" height="2" fill="#3E1C16" />
<rect x="64" y="58" width="1" height="2" fill="#000000" />
<rect x="17" y="59" width="1" height="2" fill="#000000" />
<rect x="18" y="59" width="1" height="2" fill="#8F563B" />
<rect x="26" y="59" width="32" height="2" fill="#8F563B" />
<rect x="58" y="59" width="1" height="2" fill="#774730" />
<rect x="59" y="59" width="1" height="2" fill="#000000" />
<rect x="60" y="59" width="1" height="4" fill="#4F2922" />
<rect x="62" y="60" width="1" height="1" fill="#3E1C16" />
<rect x="63" y="60" width="1" height="1" fill="#000000" />
<rect x="16" y="61" width="1" height="1" fill="#000000" />
<rect x="17" y="61" width="41" height="1" fill="#774730" />
<rect x="58" y="61" width="1" height="1" fill="#000000" />
<rect x="59" y="61" width="1" height="4" fill="#4F2922" />
<rect x="61" y="61" width="1" height="2" fill="#3E1C16" />
<rect x="62" y="61" width="1" height="2" fill="#000000" />
<rect x="17" y="62" width="41" height="1" fill="#000000" />
<rect x="58" y="62" width="1" height="5" fill="#4F2922" />
<rect x="17" y="63" width="1" height="33" fill="#000000" />
<rect x="18" y="63" width="1" height="33" fill="#8F563B" />
<rect x="19" y="63" width="1" height="33" fill="#774730" />
<rect x="20" y="63" width="1" height="33" fill="#000000" />
<rect x="21" y="63" width="33" height="5" fill="#663931" />
<rect x="54" y="63" width="1" height="33" fill="#000000" />
<rect x="55" y="63" width="1" height="33" fill="#8F563B" />
<rect x="56" y="63" width="1" height="33" fill="#774730" />
<rect x="57" y="63" width="1" height="33" fill="#000000" />
<rect x="60" y="63" width="1" height="2" fill="#3E1C16" />
<rect x="61" y="63" width="1" height="2" fill="#000000" />
<rect x="59" y="65" width="1" height="2" fill="#3E1C16" />
<rect x="60" y="65" width="1" height="2" fill="#000000" />
<rect x="58" y="67" width="1" height="2" fill="#3E1C16" />
<rect x="59" y="67" width="1" height="2" fill="#000000" />
<rect x="21" y="68" width="33" height="1" fill="#4F2922" />
<rect x="21" y="69" width="33" height="1" fill="#000000" />
<rect x="58" y="69" width="1" height="1" fill="#000000" />
<rect x="25" y="70" width="1" height="8" fill="#000000" />
<rect x="26" y="70" width="1" height="8" fill="#663931" />
<rect x="27" y="70" width="1" height="8" fill="#4F2922" />
<rect x="28" y="70" width="1" height="8" fill="#000000" />
<rect x="26" y="78" width="2" height="1" fill="#000000" />
<rect x="66" y="78" width="2" height="1" fill="#000000" />
<rect x="18" y="96" width="2" height="1" fill="#000000" />
<rect x="55" y="96" width="2" height="1" fill="#000000" />
</svg>